<?xml version="1.0" standalone="no"?>
<!DOCTYPE svg PUBLIC "-//W3C//DTD SVG 20010904//EN"
 "http://www.w3.org/TR/2001/REC-SVG-20010904/DTD/svg10.dtd">
<svg version="1.0" xmlns="http://www.w3.org/2000/svg"
 width="256.000000pt" height="256.000000pt" viewBox="0 0 256.000000 256.000000"
 preserveAspectRatio="xMidYMid meet">

<g transform="translate(0.000000,256.000000) scale(0.100000,-0.100000)"
fill="#000000" stroke="none">
<path d="M775 2550 c-210 -28 -380 -114 -526 -267 -119 -125 -188 -257 -223
-426 -12 -55 -16 -133 -16 -281 l0 -205 43 15 c43 15 130 80 92 68 -18 -5 -18
-4 -4 8 9 7 45 19 80 27 35 8 72 21 82 29 36 31 24 4 -29 -65 -29 -40 -82 -95
-116 -123 -53 -43 -69 -50 -105 -50 l-43 0 0 -112 1 -113 29 33 c38 41 38 29
0 -31 -28 -44 -30 -55 -30 -137 0 -49 4 -91 10 -95 5 -3 7 -12 3 -20 -3 -9 -2
-41 3 -73 l8 -57 6 62 c7 66 57 180 76 176 7 -1 16 23 23 59 6 33 21 81 33
107 l23 46 3 -35 c4 -39 36 -80 63 -80 10 0 31 -11 47 -25 17 -14 32 -21 34
-15 2 6 38 2 93 -10 l90 -20 -84 4 -84 3 29 -24 c16 -13 64 -38 107 -55 42
-18 73 -36 69 -40 -8 -8 -67 1 -105 17 -16 7 -15 0 9 -45 31 -60 40 -65 88
-52 47 13 47 -3 0 -18 l-36 -12 78 -80 c44 -44 117 -107 164 -140 107 -77 118
-88 55 -54 -64 34 -205 147 -273 219 -28 31 -52 53 -52 48 0 -4 20 -27 45 -51
25 -24 45 -49 45 -55 0 -6 -29 -26 -65 -45 -36 -19 -65 -36 -65 -40 0 -3 -17
-12 -37 -19 l-36 -14 24 -13 c31 -17 48 -17 83 1 35 18 37 18 30 1 -8 -20 -49
-36 -114 -43 -48 -5 -66 -2 -105 17 -25 12 -49 20 -52 16 -9 -9 37 -104 75
-154 18 -24 32 -46 30 -48 -2 -2 -28 3 -58 11 l-53 14 44 -45 c56 -58 186
-144 266 -178 70 -29 73 -30 73 -16 0 21 -87 104 -155 149 -86 55 -66 69 31
21 50 -24 80 -50 136 -113 39 -45 79 -86 87 -92 9 -6 124 -11 271 -13 l255 -3
49 60 49 60 42 -34 c23 -19 47 -46 55 -60 l13 -25 161 0 c249 0 396 39 555
144 153 102 286 269 249 313 -20 24 -47 14 -75 -28 -15 -23 -49 -56 -76 -74
-52 -35 -49 -35 -137 -5 -35 12 -75 48 -65 58 3 3 14 -3 25 -13 30 -27 93 -25
125 5 23 22 65 89 65 105 0 3 -30 5 -67 5 -51 0 -77 5 -102 21 -35 21 -37 38
-3 20 12 -6 35 -11 53 -11 l32 0 -34 23 c-19 13 -33 31 -33 41 2 13 -3 15 -20
10 -15 -4 -6 9 30 47 28 30 68 75 89 101 20 26 41 46 45 43 5 -3 29 31 54 75
26 44 51 80 56 80 5 0 7 15 4 33 -5 24 7 9 47 -58 28 -49 61 -107 72 -127 12
-21 27 -38 34 -38 8 0 -2 29 -28 81 -73 145 -73 187 0 69 23 -38 45 -70 47
-70 2 0 4 90 4 199 l0 199 -52 7 c-29 4 -93 15 -143 26 -49 10 -92 19 -95 19
-3 0 9 -13 25 -28 37 -33 24 -26 -30 15 -58 45 -77 48 -113 18 -46 -39 -132
-75 -179 -75 -59 0 -144 20 -137 32 3 5 12 7 20 4 16 -6 19 5 5 19 -27 28 -16
46 38 64 l53 19 21 -36 c21 -35 21 -35 30 -11 5 13 15 38 22 56 12 27 12 33
-1 43 -10 9 -18 9 -27 2 -18 -15 -40 1 -33 25 4 14 -11 37 -57 88 -35 39 -69
81 -76 95 -8 18 -4 15 16 -10 15 -19 62 -70 103 -113 66 -69 80 -78 105 -75
l30 4 -37 23 c-21 13 -38 28 -38 34 0 7 4 7 12 -1 13 -13 38 -16 38 -4 0 21
-61 72 -86 72 l-27 0 24 -27 c22 -25 20 -24 -17 5 -44 34 -71 62 -59 62 4 0 2
6 -4 14 -9 11 -2 15 37 20 46 6 48 8 44 34 -2 18 -19 38 -52 62 -27 19 -47 36
-45 38 2 2 22 -6 46 -17 23 -12 45 -19 47 -16 3 2 -3 7 -12 11 -19 7 -22 34
-3 34 8 1 7 5 -4 13 -19 14 -33 64 -20 69 6 2 -15 32 -46 68 -31 36 -72 90
-92 120 -19 30 -40 60 -45 66 -6 6 -24 28 -41 49 -16 21 -52 61 -78 89 -26 28
-75 89 -108 135 -47 67 -59 92 -57 115 4 37 30 46 58 21 10 -9 23 -14 28 -11
10 6 38 -23 66 -68 35 -56 205 -232 305 -316 56 -47 136 -104 179 -127 174
-96 301 -155 370 -172 l72 -19 0 21 c0 42 -30 147 -59 211 -93 206 -279 380
-483 454 -117 42 -308 74 -308 51 0 -8 -4 -8 -12 -2 -19 14 -657 16 -673 3 -9
-8 -15 -8 -20 0 -7 11 -119 11 -210 0z m440 -89 c5 -17 4 -22 -6 -19 -8 3 -15
18 -17 34 -4 33 11 24 23 -15z m95 -22 c0 -5 -4 -9 -10 -9 -5 0 -10 7 -10 16
0 8 5 12 10 9 6 -3 10 -10 10 -16z m58 -13 c3 -27 2 -28 -13 -16 -9 7 -21 22
-26 32 -9 17 -7 19 13 16 17 -2 24 -10 26 -32z m-621 -815 c2 -15 -1 -21 -9
-19 -7 3 -15 15 -16 27 -3 15 1 22 9 19 7 -2 14 -14 16 -27z m3 -81 c0 -5 -7
-10 -15 -10 -8 0 -15 5 -15 10 0 6 7 10 15 10 8 0 15 -4 15 -10z m30 -105 c0
-19 -13 -25 -29 -15 -19 11 -6 41 14 34 8 -3 15 -12 15 -19z m-125 -38 c41
-11 54 -20 70 -49 l21 -36 17 29 c16 28 20 30 69 27 48 -3 53 -5 56 -28 2 -13
11 -30 20 -36 25 -19 1 -39 -71 -59 -80 -23 -145 -21 -207 6 -61 26 -77 43
-61 63 7 8 9 25 5 40 -4 16 -1 32 6 41 15 18 12 18 75 2z m625 -98 c0 10 35
-15 184 -130 11 -10 32 -19 46 -21 15 -2 24 -9 22 -18 -2 -8 33 -49 77 -91 45
-41 81 -79 81 -83 0 -4 10 -17 23 -28 12 -11 15 -16 7 -12 -25 13 -193 125
-232 156 -21 17 -38 27 -38 24 0 -3 32 -31 71 -62 70 -56 74 -66 32 -78 -16
-5 -32 2 -60 26 -38 32 -38 32 -10 2 15 -17 27 -34 27 -40 0 -11 -112 -84
-129 -84 -19 0 -119 61 -247 151 -132 93 -143 104 -123 124 16 16 174 75 201
75 9 0 40 -20 68 -45 46 -41 53 -44 66 -30 21 20 27 19 66 -11 18 -14 10 -4
-19 22 -50 48 -164 183 -130 155 12 -9 17 -10 17 -2z m466 -74 c-12 -9 -40
-15 -70 -14 l-51 1 59 9 c32 5 61 11 64 14 3 3 8 5 11 5 3 0 -3 -7 -13 -15z
m-1442 -154 c-5 -6 -33 31 -33 44 -1 6 8 -1 19 -15 10 -14 17 -27 14 -29z m12
-58 c-7 -7 -26 7 -26 19 0 6 6 6 15 -2 9 -7 13 -15 11 -17z m1226 -761 c-12
-9 -60 -37 -105 -61 l-83 -44 -58 32 c-31 18 -55 35 -53 37 2 3 29 -5 59 -16
l54 -21 100 45 c112 50 118 52 86 28z"/>
<path d="M2340 1731 c0 -3 27 -21 60 -39 65 -36 73 -48 35 -58 -14 -3 -30 -18
-37 -35 -12 -28 -28 -39 -28 -20 0 10 -54 31 -79 31 -11 -1 -8 -5 9 -15 24
-13 23 -13 -20 -8 -42 5 -44 4 -25 -11 12 -9 40 -15 73 -16 45 0 52 -3 52 -20
0 -38 37 -23 60 25 15 31 28 45 42 45 16 0 18 3 9 14 -8 9 -8 16 -2 20 5 4 12
2 16 -4 3 -5 17 -10 31 -10 21 0 24 4 24 39 l0 39 -67 7 c-38 4 -87 11 -110
15 -24 4 -43 5 -43 1z"/>
<path d="M2134 1613 c8 -16 34 -44 58 -64 139 -117 177 -145 237 -177 60 -32
60 -34 2 -16 -12 4 -21 0 -25 -12 -9 -25 2 -33 68 -46 48 -11 58 -10 66 2 7
11 4 17 -10 22 -29 11 -25 20 5 12 l25 -6 0 81 0 81 -37 0 c-21 0 -74 7 -118
15 -66 13 -97 26 -178 75 -54 33 -100 60 -103 60 -2 0 2 -12 10 -27z"/>
<path d="M1910 1596 c0 -2 8 -10 18 -17 15 -13 16 -12 3 4 -13 16 -21 21 -21
13z"/>
<path d="M2013 1593 c9 -2 23 -2 30 0 6 3 -1 5 -18 5 -16 0 -22 -2 -12 -5z"/>
<path d="M2098 1583 c7 -3 16 -2 19 1 4 3 -2 6 -13 5 -11 0 -14 -3 -6 -6z"/>
<path d="M2042 1573 c-9 -3 -4 -10 13 -19 34 -18 40 -18 26 -1 -6 8 -8 17 -4
20 7 8 -16 8 -35 0z"/>
<path d="M2115 1560 c-8 -13 5 -13 25 0 13 8 13 10 -2 10 -9 0 -20 -4 -23 -10z"/>
<path d="M2050 1520 c22 -30 35 -35 65 -24 13 5 5 13 -32 30 -26 13 -49 24
-51 24 -2 0 6 -13 18 -30z"/>
<path d="M2518 1533 c7 -3 16 -2 19 1 4 3 -2 6 -13 5 -11 0 -14 -3 -6 -6z"/>
<path d="M2312 1400 c-11 -18 -10 -19 13 -8 13 6 22 15 19 19 -8 14 -18 11
-32 -11z"/>
<path d="M2235 1351 c-7 -13 7 -21 68 -37 61 -16 73 -11 24 9 -19 8 -38 20
-41 26 -9 13 -43 15 -51 2z"/>
<path d="M28 1313 c7 -3 16 -2 19 1 4 3 -2 6 -13 5 -11 0 -14 -3 -6 -6z"/>
<path d="M380 895 c0 -11 71 -134 81 -141 14 -8 11 -1 -20 63 -27 53 -61 97
-61 78z"/>
</g>
</svg>
